<?xml version="1.0" standalone="no"?>
<!DOCTYPE svg PUBLIC "-//W3C//DTD SVG 20010904//EN"
 "http://www.w3.org/TR/2001/REC-SVG-20010904/DTD/svg10.dtd">
<svg version="1.0" xmlns="http://www.w3.org/2000/svg"
 width="1024.000000pt" height="1024.000000pt" viewBox="0 0 1024.000000 1024.000000"
 preserveAspectRatio="xMidYMid meet">

<g transform="translate(0.000000,1024.000000) scale(0.100000,-0.100000)"
fill="#000000" stroke="none">
<path d="M4550 9601 c-56 -12 -100 -40 -161 -100 -77 -77 -116 -157 -134 -274
-6 -37 -7 -38 -24 -23 -17 15 -25 32 -85 168 -30 70 -69 98 -139 98 -86 0
-146 -45 -229 -174 -58 -90 -79 -170 -79 -301 0 -76 7 -134 20 -187 21 -82 76
-200 118 -256 l25 -33 -126 -121 c-299 -286 -481 -586 -607 -1001 -21 -70 -46
-168 -55 -216 l-16 -88 -48 -20 c-34 -15 -56 -33 -77 -64 -27 -41 -28 -47 -28
-168 0 -148 13 -182 82 -215 l40 -20 7 -79 c29 -351 146 -685 332 -949 80
-113 189 -242 268 -315 77 -73 244 -206 292 -235 19 -11 34 -22 34 -24 0 -2
-10 -25 -22 -50 -23 -44 -24 -45 -64 -40 -65 8 -223 78 -319 141 -56 37 -134
103 -206 174 -264 264 -408 494 -563 901 -126 328 -218 512 -297 591 -52 53
-130 85 -183 75 -74 -14 -143 -89 -181 -196 -24 -67 -45 -195 -45 -276 l0 -72
-63 5 c-57 5 -66 3 -94 -21 -41 -34 -60 -86 -74 -198 -34 -278 49 -694 207
-1033 20 -44 47 -111 60 -149 13 -38 33 -84 43 -102 42 -70 210 -271 259 -309
29 -21 52 -41 52 -43 0 -2 -13 -17 -30 -32 -27 -25 -30 -34 -30 -87 0 -48 5
-68 30 -106 67 -105 291 -197 484 -197 37 0 57 -6 83 -26 48 -36 185 -98 274
-123 41 -11 124 -28 184 -36 60 -9 110 -17 112 -19 2 -1 -4 -47 -12 -102 -55
-380 -39 -809 41 -1074 79 -261 216 -498 394 -680 86 -88 248 -215 340 -267
47 -27 50 -30 50 -69 l0 -41 -122 -6 c-143 -7 -226 -26 -322 -74 -97 -49 -166
-117 -206 -205 -39 -84 -40 -124 -6 -183 43 -72 63 -80 201 -79 66 1 131 6
145 12 22 9 30 5 68 -31 l43 -42 102 -3 c186 -6 588 70 680 128 81 51 137 158
137 261 l0 61 113 -9 c162 -12 462 -8 530 6 32 7 61 10 64 8 2 -3 9 -37 13
-76 5 -38 19 -89 30 -113 26 -57 91 -120 156 -152 130 -65 558 -138 686 -117
62 11 92 23 123 52 19 17 29 18 110 8 108 -12 202 -4 244 22 32 19 64 73 75
124 4 20 -1 56 -15 100 -18 59 -30 78 -82 130 -34 33 -85 72 -112 87 -90 48
-293 88 -446 88 l-57 0 -7 36 c-3 20 -5 37 -3 38 2 1 38 24 80 50 148 91 308
236 419 381 42 55 152 229 162 258 3 7 13 0 27 -18 68 -88 187 -179 380 -291
204 -119 320 -135 402 -57 l28 27 35 -42 c20 -22 61 -53 92 -68 47 -23 69 -28
137 -28 153 0 216 67 216 232 0 134 -79 465 -167 702 -204 548 -647 1275
-1132 1860 -113 137 -231 325 -231 369 0 4 51 43 113 87 128 90 344 298 430
414 91 122 194 306 247 441 63 159 128 419 143 571 11 115 12 117 38 123 15 3
36 16 47 28 40 43 52 90 52 209 0 95 -3 118 -20 146 -21 34 -74 72 -102 72
-24 0 -26 7 -44 112 -54 314 -225 691 -434 954 -89 112 -265 291 -384 391
-246 207 -617 393 -954 477 -311 78 -569 101 -867 75 l-130 -11 -77 32 c-113
47 -183 109 -229 198 -22 42 -42 101 -48 140 -16 91 -29 120 -62 138 -36 18
-103 25 -149 15z m90 -201 c21 -127 102 -261 201 -336 66 -50 183 -99 272
-114 53 -10 91 -9 196 4 206 25 374 18 606 -25 403 -75 765 -239 1070 -484
118 -95 325 -309 398 -412 76 -108 185 -301 242 -430 53 -121 155 -507 126
-478 -8 9 -97 241 -116 305 -30 99 -197 382 -324 547 -172 226 -480 473 -756
610 -169 83 -297 127 -530 183 -205 50 -294 60 -600 70 -217 7 -263 12 -347
34 -257 66 -442 226 -513 444 l-17 52 -31 -26 c-69 -57 -112 -125 -123 -193
-11 -66 -22 -47 -17 27 11 133 73 235 175 286 64 32 73 26 88 -64z m-549 -158
c74 -143 188 -310 247 -363 48 -43 172 -109 204 -109 10 0 18 -4 18 -10 0 -25
-125 2 -210 45 -114 59 -258 215 -325 353 -16 34 -32 62 -35 62 -16 0 -130
-216 -130 -247 0 -10 -8 -27 -16 -38 -15 -18 -16 -12 -11 85 5 115 25 185 72
246 31 40 104 96 119 91 5 -2 35 -53 67 -115z m1841 -479 c28 -25 20 -81 -14
-106 -24 -18 -30 -18 -58 -7 -28 12 -60 54 -60 80 0 6 12 22 27 36 31 29 72
27 105 -3z m543 -248 c34 -33 33 -77 -1 -104 -35 -27 -40 -27 -75 8 -33 33
-38 74 -12 103 23 25 59 23 88 -7z m208 -6 c47 -24 67 -51 67 -90 0 -85 -112
-96 -146 -14 -19 46 -18 57 7 89 22 28 39 32 72 15z m-2689 -119 c27 -20 34
-30 22 -30 -42 0 -333 -318 -459 -502 -127 -185 -262 -488 -317 -714 -7 -28
-17 -43 -29 -47 -11 -3 -22 -3 -24 -1 -7 7 22 144 54 259 80 282 235 579 418
799 57 68 274 267 290 266 3 0 24 -14 45 -30z m411 -440 c127 -12 212 -35 333
-91 249 -115 424 -291 547 -552 52 -110 87 -205 77 -210 -4 -3 -24 -8 -46 -11
-21 -4 -63 -18 -92 -31 -30 -13 -55 -21 -57 -17 -3 4 -10 25 -17 47 -7 22 -35
85 -63 140 -44 86 -65 114 -153 202 -142 143 -312 249 -455 287 -105 27 -276
40 -368 27 -186 -25 -405 -125 -581 -264 -24 -20 -46 -34 -48 -33 -2 2 17 35
41 72 148 232 409 398 679 433 90 12 83 12 203 1z m2460 -19 c254 -67 500
-264 617 -496 l30 -59 -76 71 c-245 229 -570 338 -861 288 -107 -18 -275 -77
-365 -127 -164 -92 -332 -280 -402 -452 -15 -37 -28 -72 -28 -76 0 -5 -4 -20
-10 -34 l-9 -26 -73 35 c-40 19 -83 35 -95 35 -29 0 -29 3 6 98 154 417 453
679 863 758 102 19 299 12 403 -15z m-2597 -283 c7 -7 12 -21 12 -33 0 -32
-19 -45 -65 -45 -23 0 -46 5 -53 12 -18 18 -15 55 6 67 24 14 85 14 100 -1z
m2494 -5 c10 -9 18 -26 18 -39 0 -33 -70 -53 -106 -29 -28 18 -32 59 -6 74 26
16 73 13 94 -6z m-2267 -33 c71 -11 101 -36 91 -74 -15 -59 -116 -35 -143 33
-10 26 -23 41 -37 44 -47 9 30 7 89 -3z m2438 3 c-7 -2 -19 -2 -25 0 -7 3 -2
5 12 5 14 0 19 -2 13 -5z m-2948 -20 c-27 -8 -76 -22 -107 -32 -32 -10 -58
-17 -58 -15 0 8 64 35 112 48 71 20 119 19 53 -1z m2560 9 c-6 -4 -50 -21
-100 -37 -75 -24 -86 -30 -65 -35 23 -7 24 -8 5 -15 -140 -52 -162 -64 -204
-104 -30 -28 -59 -46 -83 -51 l-37 -7 14 26 c52 100 284 215 465 230 8 0 10
-2 5 -7z m504 -7 c37 -19 45 -42 26 -71 -18 -27 -44 -30 -84 -9 -31 15 -41 33
-41 71 0 21 5 24 35 24 20 0 49 -7 64 -15z m-3264 -78 c-61 -44 -87 -77 -82
-99 5 -16 -5 -32 -37 -65 -46 -46 -87 -57 -104 -27 -8 14 -13 10 -31 -19 -12
-19 -28 -38 -37 -41 -9 -3 -1 14 18 40 59 83 105 128 155 154 26 13 68 37 92
52 53 33 68 36 26 5z m3442 -30 c9 -9 -7 -7 -51 7 -36 12 -66 27 -66 33 0 15
95 -18 117 -40z m-2827 -54 c122 -25 220 -81 325 -188 139 -141 191 -245 216
-432 19 -142 1 -257 -61 -388 -44 -92 -129 -198 -215 -268 -282 -228 -694
-202 -947 59 -197 204 -260 410 -214 696 32 195 181 371 411 485 74 37 100 44
195 54 91 9 189 3 290 -18z m2425 16 c180 -22 301 -84 434 -225 161 -170 230
-394 186 -601 -60 -284 -217 -473 -471 -571 -107 -41 -199 -56 -293 -48 -202
18 -344 80 -477 208 -69 66 -142 169 -175 244 -76 180 -70 432 17 605 53 107
121 183 224 248 212 136 334 167 555 140z m492 -19 c18 -10 40 -31 49 -45 16
-24 16 -27 -1 -45 -22 -25 -34 -25 -62 -1 -37 31 -59 111 -30 111 6 0 26 -9
44 -20z m-1746 -444 c73 -16 153 -52 144 -65 -3 -5 -21 -5 -41 -1 l-36 8 33
-29 34 -28 -54 25 c-36 17 -79 28 -128 31 -80 6 -240 -12 -290 -32 -36 -15
-53 -4 -33 20 21 25 117 67 172 75 82 12 128 11 199 -4z m-2305 -21 c3 -8 2
-27 -3 -42 l-9 -27 -117 -1 c-114 0 -117 1 -117 22 0 12 12 31 26 42 23 18 41
21 121 21 73 0 95 -3 99 -15z m4644 2 c16 -8 26 -23 28 -40 l3 -27 -120 0
c-109 0 -121 2 -131 19 -5 11 -10 29 -10 40 0 20 6 21 103 21 62 0 112 -5 127
-13z m-2307 -183 c27 -7 64 -23 83 -35 31 -19 34 -25 35 -72 0 -29 11 -92 23
-142 13 -49 22 -92 20 -94 -2 -2 -25 13 -52 33 -107 78 -243 105 -356 71 -54
-17 -129 -57 -163 -88 -30 -27 -35 -20 -21 29 6 21 18 86 27 144 l17 105 55
28 c90 45 218 54 332 21z m-3205 -152 c75 -75 143 -210 279 -552 72 -181 166
-377 233 -485 91 -146 246 -342 357 -452 163 -161 323 -263 526 -334 67 -24
75 -33 45 -53 -36 -22 -294 77 -418 162 -174 117 -422 390 -559 614 -86 143
-177 343 -254 563 -89 256 -161 409 -236 509 -42 55 -47 66 -31 66 11 0 37
-17 58 -38z m3177 -196 c76 -34 165 -114 208 -187 54 -91 49 -108 -35 -136
-187 -63 -425 -54 -618 23 -52 21 -52 43 -1 120 72 109 148 168 261 198 65 18
116 13 185 -18z m2015 -253 c-22 -80 -91 -234 -152 -339 -31 -53 -32 -60 -18
-74 8 -8 24 -14 34 -12 10 2 22 -1 26 -8 4 -6 16 -12 28 -13 19 -1 20 -2 5
-32 -61 -118 -230 -317 -376 -439 -153 -129 -409 -280 -587 -347 -178 -66
-288 -100 -370 -115 -586 -106 -717 -107 -1320 -8 -344 56 -674 193 -934 388
-167 126 -245 198 -345 321 -107 132 -143 184 -176 260 l-23 50 38 -3 c24 -3
42 2 53 12 15 15 18 14 38 -6 18 -20 17 -14 -8 37 -39 79 -129 293 -136 324
-4 18 20 -3 82 -70 149 -159 322 -269 500 -317 85 -23 115 -26 266 -26 152 0
180 3 267 27 54 14 126 38 160 54 78 35 204 127 281 206 32 32 60 57 62 55 2
-1 11 -32 20 -68 40 -158 151 -327 263 -398 68 -45 170 -66 245 -53 63 11 128
40 167 74 77 68 181 234 227 364 14 40 28 73 31 73 2 0 34 -28 71 -62 219
-207 506 -302 816 -269 114 12 270 58 370 109 115 58 312 236 380 344 16 26
31 45 33 43 2 -2 -6 -39 -18 -82z m-2396 -244 c34 -62 110 -139 164 -166 25
-12 59 -18 103 -18 105 0 143 29 275 211 37 50 39 17 4 -51 -40 -78 -127 -170
-184 -196 -57 -26 -147 -25 -203 2 -63 30 -134 109 -176 194 -41 82 -43 89
-24 83 6 -3 25 -29 41 -59z m282 17 l141 1 -31 -55 c-40 -71 -76 -94 -138 -89
-61 5 -111 43 -142 108 l-24 49 26 -8 c15 -4 90 -7 168 -6z m904 -16 c8 -5 11
-10 5 -10 -5 0 -17 5 -25 10 -8 5 -10 10 -5 10 6 0 17 -5 25 -10z m-2380
-1169 c8 -15 3 -39 -19 -103 -39 -112 -132 -410 -164 -528 -40 -147 -56 -219
-93 -435 -20 -110 -39 -220 -43 -245 l-8 -45 -2 45 c-3 123 64 550 124 784 59
231 168 546 189 546 3 0 10 -9 16 -19z m2994 -181 c51 -149 102 -347 92 -357
-2 -2 -14 26 -25 64 -12 37 -46 142 -75 233 -93 287 -87 334 8 60z m-2184 87
c200 -41 517 -71 735 -71 247 0 489 31 665 85 l65 20 33 -38 c18 -21 49 -60
68 -88 19 -27 52 -75 74 -105 58 -80 181 -336 234 -482 48 -137 98 -341 117
-483 17 -131 6 -433 -20 -556 -51 -235 -120 -404 -216 -529 -89 -116 -241
-241 -385 -318 -342 -181 -745 -228 -1134 -131 -103 26 -186 58 -299 115 -116
58 -201 121 -298 221 -184 189 -259 347 -321 678 -40 215 -26 547 33 780 53
206 169 507 249 645 51 88 123 185 179 243 36 38 51 47 71 44 14 -3 81 -16
150 -30z m2440 -282 c363 -460 766 -1137 945 -1589 44 -111 132 -423 122 -433
-3 -2 -33 63 -67 144 -149 350 -389 816 -580 1123 -71 114 -333 506 -403 603
-53 74 -82 142 -102 242 l-6 30 18 -25 c10 -13 43 -56 73 -95z m-2443 -2961
c-3 -3 -12 -4 -19 -1 -8 3 -5 6 6 6 11 1 17 -2 13 -5z m-228 -18 c37 -14 299
-141 309 -151 7 -7 -111 -62 -160 -73 -82 -21 -317 -52 -385 -52 -96 0 -74 -7
32 -11 50 -2 102 -9 117 -16 31 -15 41 -16 35 -5 -3 4 14 5 37 4 24 -2 66 3
94 12 29 8 52 11 52 7 0 -7 -32 -16 -155 -40 -86 -18 -253 -32 -292 -26 -51 9
-93 25 -93 37 0 43 93 137 177 177 70 34 79 44 58 61 -22 19 -114 6 -179 -23
-65 -30 -138 -94 -160 -142 -15 -31 -21 -34 -72 -41 -65 -8 -153 1 -168 16
-16 16 37 112 85 155 65 59 132 85 294 119 11 2 90 4 176 5 114 1 168 -3 198
-13z m320 3 c81 -13 84 -15 65 -44 -17 -25 -36 -24 -66 4 -32 30 -45 39 -64
44 -35 9 0 7 65 -4z m1938 -13 c131 -24 234 -90 269 -173 24 -55 20 -63 -23
-47 -21 7 -62 13 -90 14 -44 0 -53 -3 -53 -17 0 -26 12 -41 40 -52 21 -8 17
-10 -27 -10 l-53 -1 -21 45 c-28 60 -102 132 -164 161 -67 30 -134 39 -159 21
-28 -20 -14 -44 39 -67 51 -22 140 -101 152 -134 9 -27 4 -59 -11 -68 -22 -15
-208 -8 -333 13 -141 22 -303 58 -303 66 0 6 119 -5 175 -17 68 -14 129 -23
155 -23 14 1 28 -4 32 -10 6 -9 8 -8 8 1 0 10 12 13 38 11 53 -3 152 3 122 8
-14 2 -74 11 -135 19 -185 26 -306 54 -369 85 -34 17 -65 34 -70 39 -5 5 43
34 110 66 203 98 193 95 404 90 102 -2 222 -11 267 -20z m-1910 -195 c0 -11
-5 -17 -9 -15 -4 3 -8 1 -8 -3 0 -18 -131 -63 -180 -62 -13 0 -13 1 0 9 9 5
22 10 29 12 8 2 23 11 33 21 10 9 26 17 36 17 10 0 22 3 26 7 4 4 21 13 39 19
18 6 33 12 34 13 1 0 1 -8 0 -18z"/>
<path d="M4103 7015 c-126 -35 -219 -106 -298 -226 -70 -107 -73 -168 -10
-195 59 -24 71 -19 158 70 100 101 156 127 287 134 143 6 232 -43 330 -183 30
-42 41 -50 71 -53 30 -3 41 2 58 24 29 36 22 84 -24 179 -53 111 -161 207
-270 241 -71 23 -237 28 -302 9z"/>
<path d="M6600 7024 c-36 -7 -97 -29 -136 -49 -123 -60 -238 -205 -251 -315
-7 -62 12 -90 64 -90 37 0 58 18 104 87 59 88 204 149 339 141 110 -6 169 -37
255 -133 66 -74 67 -75 117 -75 41 0 54 5 79 29 16 16 29 37 29 47 0 32 -83
158 -144 220 -67 66 -152 114 -251 139 -71 18 -119 18 -205 -1z"/>
<path d="M3920 1203 c-31 -6 -53 -24 -43 -34 11 -10 81 13 88 28 4 13 -1 14
-45 6z"/>
<path d="M2968 8506 c-8 -7 -20 -39 -27 -69 -14 -62 -20 -69 -76 -87 -78 -24
-79 -50 -4 -70 49 -13 73 -40 89 -96 10 -35 17 -44 35 -44 21 0 45 34 45 64 0
16 47 60 88 80 17 9 32 22 32 29 0 7 -25 27 -56 46 -56 33 -74 60 -74 110 0
26 -15 51 -31 51 -4 0 -14 -6 -21 -14z"/>
<path d="M2527 8333 c-3 -4 -17 -53 -31 -108 -31 -115 -70 -191 -114 -221 -17
-12 -61 -27 -98 -34 -70 -13 -104 -36 -104 -70 0 -25 30 -44 110 -69 123 -39
167 -90 210 -246 34 -126 67 -139 95 -38 43 159 46 167 95 214 31 31 68 54
106 68 90 32 109 44 112 72 4 34 -7 41 -111 73 -78 24 -91 31 -117 68 -31 42
-47 88 -77 218 -16 68 -20 75 -45 78 -14 2 -28 0 -31 -5z"/>
</g>
</svg>
